<?xml version="1.0" encoding="UTF-8"?>
<!DOCTYPE svg PUBLIC "-//W3C//DTD SVG 1.1//EN" "http://www.w3.org/Graphics/SVG/1.1/DTD/svg11.dtd">
<!-- Creator: CorelDRAW 2021 (64 Bit) -->
<svg xmlns="http://www.w3.org/2000/svg" xml:space="preserve" width="58.461mm" height="53.482mm" version="1.1" style="shape-rendering:geometricPrecision; text-rendering:geometricPrecision; image-rendering:optimizeQuality; fill-rule:evenodd; clip-rule:evenodd"
viewBox="0 0 5846.1 5348.2"
 xmlns:xlink="http://www.w3.org/1999/xlink"
 xmlns:xodm="http://www.corel.com/coreldraw/odm/2003">
 <defs>
  <style type="text/css">
   <![CDATA[
    .str1 {stroke:white;stroke-width:70.56;stroke-linecap:round;stroke-linejoin:round;stroke-miterlimit:22.9256}
    .str0 {stroke:white;stroke-width:70.56;stroke-linecap:round;stroke-linejoin:round;stroke-miterlimit:22.9256}
    .fil0 {fill:none;fill-rule:nonzero}
    .fil2 {fill:white}
    .fil1 {fill:white;fill-rule:nonzero}
   ]]>
  </style>
 </defs>
 <g id="Camada_x0020_1">
  <metadata id="CorelCorpID_0Corel-Layer"/>
  <path class="fil0 str0" d="M4824.35 2296.05c140.03,-31.11 964.6,-819.39 964.6,-819.39 0,0 -736.41,-783.09 -891.97,-943.84 -155.59,-160.75 -88.18,-202.24 -414.9,-248.93 -326.72,-46.67 -928.3,-233.36 -928.3,-233.36 0,968.35 -1275.75,968.31 -1275.75,0 0,0 -601.58,186.69 -928.3,233.36 -326.7,46.69 -259.29,88.18 -414.87,248.93 -155.59,160.75 -891.98,943.84 -891.98,943.84 0,0 824.57,788.28 964.58,819.39 0,0 311.17,-311.14 352.64,-300.77 41.51,10.36 -51.85,3236.06 -41.47,3303.45l1597.29 0 1597.28 0c10.38,-67.39 -82.97,-3293.09 -41.5,-3303.45 41.48,-10.37 352.65,300.77 352.65,300.77z"/>
  <path class="fil1 str0" d="M1318.63 5298.73l1597.29 0 1597.28 0c1.57,-10.15 0.75,-92.43 -1.57,-224.27l-3191.43 0c-2.33,131.84 -3.15,214.12 -1.57,224.27z"/>
  <path class="fil2 str1" d="M3553.78 50.53c0,968.36 -1275.75,968.32 -1275.75,0 0,0 -50.67,15.73 -130.6,39.18 0,0 -39.65,826.74 768.49,826.74 808.11,0 768.46,-826.74 768.46,-826.73 -79.93,-23.46 -130.6,-39.19 -130.6,-39.19z"/>
 </g>
</svg>
