<?xml version="1.0" encoding="UTF-8"?>
<!DOCTYPE svg PUBLIC "-//W3C//DTD SVG 1.1//EN" "http://www.w3.org/Graphics/SVG/1.1/DTD/svg11.dtd">
<!-- Creator: CorelDRAW 2021 (64 Bit) -->
<svg xmlns="http://www.w3.org/2000/svg" xml:space="preserve" width="39.685mm" height="40.524mm" version="1.1" style="shape-rendering:geometricPrecision; text-rendering:geometricPrecision; image-rendering:optimizeQuality; fill-rule:evenodd; clip-rule:evenodd"
viewBox="0 0 3968.5 4052.4"
 xmlns:xlink="http://www.w3.org/1999/xlink"
 xmlns:xodm="http://www.corel.com/coreldraw/odm/2003">
 <defs>
  <style type="text/css">
   <![CDATA[
    .str2 {stroke:white;stroke-width:20;stroke-miterlimit:22.9256}
    .str0 {stroke:white;stroke-width:70.56;stroke-linecap:round;stroke-linejoin:round;stroke-miterlimit:22.9256}
    .str1 {stroke:white;stroke-width:70.56;stroke-linecap:round;stroke-linejoin:round;stroke-miterlimit:22.9256}
    .fil0 {fill:none;fill-rule:nonzero}
    .fil1 {fill:white;fill-rule:nonzero}
   ]]>
  </style>
 </defs>
 <g id="Camada_x0020_1">
  <metadata id="CorelCorpID_0Corel-Layer"/>
  <path class="fil0 str0" d="M453.03 136.89c0,0 348.71,-86.35 1523.58,-86.35 1174.87,0 1523.56,86.35 1523.56,86.35l-74.32 22.46c-424.29,115.37 -1449.24,220.38 -1449.24,220.38 0,0 -1161.73,-119.02 -1523.58,-242.84z"/>
  <path class="fil0 str1" d="M3500.17 136.89c-361.85,123.82 -1523.56,242.84 -1523.56,242.84 0,0 -1161.73,-119.02 -1523.58,-242.84 0,0 -395.18,2399.6 -376.14,3123.32 0,0 999.87,238.06 1766.39,242.81 0,0 -28.55,-1009.35 133.33,-1009.35 161.86,0 133.31,1009.35 133.31,1009.35 766.54,-4.75 1766.41,-242.81 1766.41,-242.81 19.02,-723.72 -376.16,-3123.32 -376.16,-3123.32z"/>
  <path class="fil0 str1" d="M76.89 3260.21c0,0 -54.5,200.87 -25.52,428.53 0,0 691.06,403.54 1792.03,295.94l-0.12 -481.66c-766.52,-4.75 -1766.39,-242.81 -1766.39,-242.81z"/>
  <path class="fil0 str1" d="M3877.35 3260.21c0,0 54.51,200.87 25.52,428.53 0,0 -691.06,403.54 -1792.05,295.94l0.11 -481.66c766.55,-4.75 1766.42,-242.81 1766.42,-242.81z"/>
  <path class="fil0 str1" d="M3500.17 136.89c-361.85,123.82 -1523.56,242.84 -1523.56,242.84 0,0 -1161.73,-119.02 -1523.58,-242.84 0,0 -21.72,131.99 -54.75,343.36 0,0 987.05,286.36 1578.33,286.36 591.27,0 1578.33,-286.36 1578.33,-286.36 -33.05,-211.37 -54.77,-343.36 -54.77,-343.36z"/>
  <path class="fil0 str1" d="M2100.18 567.93c0,68.6 -55.59,124.17 -124.17,124.17 -68.57,0 -124.17,-55.57 -124.17,-124.17 0,-68.58 55.6,-124.16 124.17,-124.16 68.58,0 124.17,55.58 124.17,124.16z"/>
  <path class="fil1 str2" d="M2018.91 567.93c0,23.7 -19.23,42.87 -42.9,42.87 -23.69,0 -42.89,-19.17 -42.89,-42.87 0,-23.67 19.2,-42.87 42.89,-42.87 23.67,0 42.9,19.2 42.9,42.87z"/>
  <path class="fil0 str1" d="M1976.61 766.61l0 1727.06c0,0 355.35,-94.24 380.19,-243.26 24.81,-148.99 0,-1512.16 0,-1512.16 0,0 -301.72,30.04 -380.19,28.36z"/>
  <path class="fil1 str1" d="M297.8 1146.53c0,0 597.33,-126.76 898.31,-474.69l107.14 20.26c0,0 -347.34,463.3 -1018.99,548.27l13.54 -93.84z"/>
  <path class="fil1 str1" d="M3657.52 1146.53c0,0 -597.31,-126.76 -898.3,-474.69l-107.12 20.26c0,0 347.34,463.3 1018.98,548.27l-13.56 -93.84z"/>
 </g>
</svg>
